<svg version="1.1" id="Layer_1" xmlns="http://www.w3.org/2000/svg" xmlns:xlink="http://www.w3.org/1999/xlink" x="0px" y="0px"
	 width="100%" viewBox="0 0 500 500" enable-background="new 0 0 500 500" xml:space="preserve">
<path fill="#000000" opacity="1.000000" stroke="none" 
	d="
M215.000000,501.000000 
	C143.333344,501.000000 72.166702,501.000000 1.000038,501.000000 
	C1.000026,334.333405 1.000026,167.666779 1.000013,1.000128 
	C167.666580,1.000085 334.333160,1.000085 500.999817,1.000043 
	C500.999878,167.666534 500.999878,334.333069 500.999939,500.999817 
	C405.833344,501.000000 310.666656,501.000000 215.000000,501.000000 
M259.316864,286.998291 
	C258.851685,287.048767 258.386536,287.099274 257.394196,287.159332 
	C256.986298,287.488190 256.578369,287.817047 255.580917,288.077515 
	C255.358566,288.380005 255.136230,288.682495 254.969254,288.949249 
	C254.969254,288.949249 254.924576,288.900818 254.263306,288.995026 
	C250.231812,293.237854 254.689423,293.521851 257.726685,294.936127 
	C261.954865,297.321716 266.165894,299.738281 270.414398,302.087128 
	C283.676086,309.419128 297.669281,315.334778 310.798096,322.955414 
	C312.633118,324.020569 315.948517,323.640411 318.119965,322.776489 
	C321.908051,321.269348 325.339355,318.865509 329.632660,316.754150 
	C335.153748,313.672974 341.908813,311.869934 342.935944,303.084167 
	C342.945984,289.473877 342.995758,275.863312 342.916534,262.253540 
	C342.906433,260.518524 342.222961,258.787415 341.947357,256.237701 
	C341.887085,249.431808 341.718475,249.362091 335.795593,252.095642 
	C329.550262,254.977982 323.122284,257.494385 317.034851,260.670410 
	C315.241882,261.605896 313.339203,264.169495 313.204346,266.106476 
	C312.766144,272.401245 313.123596,278.751373 313.007416,285.841980 
	C312.461914,287.831696 311.916412,289.821411 311.208801,292.402313 
	C305.010101,289.034882 299.084015,285.568451 292.935791,282.555267 
	C288.183167,280.226074 283.403076,276.340820 277.810547,278.335052 
	C272.328339,280.289948 267.301025,283.520569 261.452789,286.092438 
	C260.956482,286.393555 260.460175,286.694672 260.014252,287.021667 
	C260.014252,287.021667 260.018372,286.965118 259.316864,286.998291 
M208.902267,190.487228 
	C208.598358,190.301727 208.294449,190.116241 207.994858,189.994919 
	C207.994858,189.994919 208.056458,189.976456 207.748764,189.369125 
	C206.501801,188.882294 205.254852,188.395462 204.005981,187.993011 
	C204.005981,187.993011 204.090378,187.994110 203.898117,187.499130 
	C203.587616,187.398224 203.277100,187.297318 202.562668,187.055603 
	C202.562668,187.055603 202.138260,187.002197 201.896332,186.485107 
	C201.554291,186.387939 201.212250,186.290756 200.503494,186.057266 
	C200.503494,186.057266 200.116470,185.999985 199.900467,185.497986 
	C199.578094,185.397720 199.255707,185.297455 198.528793,185.059998 
	C198.528793,185.059998 198.104965,185.006683 197.836670,184.526215 
	C197.502457,184.425781 197.168243,184.325363 196.490356,184.066147 
	C196.490356,184.066147 196.113480,184.030121 195.778915,183.494125 
	C195.181030,183.392349 194.583145,183.290573 193.549408,183.039688 
	C193.549408,183.039688 193.092392,182.981964 192.886276,182.493240 
	C192.572861,182.392334 192.259460,182.291443 191.538452,182.042862 
	C191.538452,182.042862 191.108383,181.988144 190.780685,181.350037 
	C189.430664,180.851059 188.080627,180.352066 186.252502,179.346603 
	C185.874069,179.530914 185.495621,179.715240 184.364151,180.018646 
	C177.878601,183.312134 171.393051,186.605606 164.196564,190.024628 
	C160.739594,191.521484 157.902054,193.261673 157.940552,197.829208 
	C158.079010,214.255112 157.891907,230.684311 158.119781,247.108200 
	C158.145782,248.983032 160.013672,250.832291 161.725220,252.572342 
	C169.596848,249.131317 177.630249,246.000015 185.226562,242.031921 
	C187.129852,241.037704 187.836563,237.422256 188.673447,234.873672 
	C189.026535,233.798386 188.293137,232.366333 188.657593,230.719681 
	C188.381668,229.144608 188.105759,227.569519 187.985001,225.074539 
	C187.985001,220.490219 187.985001,215.905899 187.985001,210.815674 
	C189.260574,211.290024 189.874161,211.438141 190.409927,211.729431 
	C198.466156,216.109268 206.452011,220.625076 214.606537,224.812668 
	C216.442764,225.755630 219.218002,226.451324 220.945755,225.748474 
	C228.133392,222.824570 235.085861,219.322556 242.546143,215.943481 
	C242.546143,215.943481 242.945816,215.782608 243.661011,215.892761 
	C245.511810,214.693420 247.362610,213.494095 250.461044,211.486282 
	C246.608871,209.899658 244.316193,208.955338 242.026398,207.971542 
	C242.026398,207.971542 241.987839,207.980545 241.732086,207.347992 
	C239.499863,206.211243 237.267639,205.074509 235.003754,203.993057 
	C235.003754,203.993057 235.057800,203.959351 234.740845,203.365891 
	C233.501221,202.885605 232.261612,202.405319 231.029465,201.992569 
	C231.029465,201.992569 231.052811,201.928360 230.738831,201.334595 
	C229.500870,200.870895 228.262894,200.407211 227.000412,199.995560 
	C227.000412,199.995560 227.048859,199.964645 226.780807,199.393295 
	C225.857315,198.921326 224.933823,198.449341 223.833069,197.570740 
	C223.657822,197.271698 223.402359,197.165482 222.413513,197.040665 
	C221.956757,197.011154 221.499985,196.981644 220.688599,196.366180 
	C218.829834,195.557465 216.971054,194.748749 214.827499,193.355637 
	C213.887848,192.872299 212.948181,192.388977 212.010452,191.976013 
	C212.010452,191.976013 212.080261,191.966995 211.727234,191.356827 
	C210.804779,191.208206 209.882324,191.059570 208.986877,191.023682 
	C208.986877,191.023682 209.100113,190.998947 208.902267,190.487228 
M206.853745,289.979919 
	C208.369125,289.394684 209.933044,288.910217 211.391891,288.207581 
	C219.775162,284.170105 228.040985,279.875427 236.521454,276.056183 
	C250.090500,269.945251 263.837555,264.230652 277.434631,258.180603 
	C297.317230,249.333786 317.166870,240.410324 336.928345,231.297913 
	C338.959808,230.361176 341.647614,227.978653 341.730774,226.161728 
	C342.194702,216.025360 342.014496,205.855591 341.862183,195.700119 
	C341.844116,194.495331 340.958771,192.746857 339.958191,192.204147 
	C333.610779,188.761337 327.194977,185.416916 320.623413,182.432785 
	C318.776733,181.594193 316.039337,181.343094 314.210510,182.073822 
	C305.698883,185.474747 297.330902,189.245255 288.993195,193.062012 
	C287.512817,193.739685 286.419434,195.262772 285.147339,196.395462 
	C286.394623,197.565979 287.487244,198.990601 288.917175,199.861115 
	C293.948059,202.923920 299.094849,205.796387 304.778778,209.076401 
	C287.352692,216.963501 270.969574,224.396606 254.570404,231.794083 
	C244.711670,236.241226 234.791397,240.553436 224.964676,245.069672 
	C212.928452,250.601379 200.961105,256.282990 188.223053,261.998566 
	C179.911148,265.787872 171.514999,269.408844 163.351410,273.494537 
	C161.498306,274.421967 159.377899,276.870453 159.217346,278.773773 
	C158.466827,287.670074 158.494858,296.628754 157.956436,305.547791 
	C157.734283,309.227539 159.187851,311.468353 162.268509,313.077759 
	C167.931931,316.036530 173.489532,319.209717 179.245819,321.971252 
	C180.853928,322.742706 183.304688,323.090546 184.854584,322.428558 
	C193.263733,318.836945 201.545609,314.938171 209.783356,310.962952 
	C211.230042,310.264832 213.406723,308.470825 213.229355,307.588409 
	C212.912796,306.013611 211.307037,304.331879 209.800186,303.431335 
	C205.345932,300.769440 200.676651,298.467316 195.794830,295.866394 
	C199.608978,293.709869 202.857544,291.873138 206.853745,289.979919 
M226.438202,183.060028 
	C234.089737,188.780319 241.074417,185.850876 248.077332,181.565048 
	C249.180984,180.889618 251.060242,180.708008 252.273163,181.147430 
	C254.714600,182.031921 257.192352,183.191010 259.204559,184.800186 
	C262.463837,187.406662 265.721252,187.610870 269.317993,185.969345 
	C276.173492,182.840546 283.070190,179.795517 289.847626,176.505264 
	C292.642853,175.148224 295.174561,173.248260 297.826111,171.595230 
	C295.159515,169.875595 292.595428,167.964935 289.808563,166.469437 
	C277.813477,160.032578 265.801941,153.621078 253.662369,147.464630 
	C251.887878,146.564697 248.966064,146.249878 247.293396,147.091644 
	C233.823181,153.870407 220.517441,160.976746 207.188980,168.035019 
	C206.109131,168.606888 205.234268,169.565811 203.626083,170.857254 
	C211.365448,175.098724 218.523453,179.021591 226.438202,183.060028 
M204.173721,332.450989 
	C205.739349,333.763611 207.131042,335.407501 208.898575,336.335632 
	C221.176926,342.783173 233.583313,348.987946 245.831497,355.491180 
	C249.114548,357.234344 251.908279,357.159607 255.112473,355.520264 
	C267.092407,349.390991 279.149933,343.413696 291.159363,337.341797 
	C293.491333,336.162781 295.737946,334.815033 299.167236,332.910034 
	C297.386932,331.646301 296.518280,330.869781 295.517303,330.345947 
	C290.147278,327.535522 284.557739,325.093933 279.397156,321.946014 
	C271.950256,317.403442 264.886566,317.147461 257.480591,321.938232 
	C252.761322,324.991089 248.183105,324.400940 243.269608,321.346710 
	C239.574234,319.049652 235.320450,316.769104 230.409897,319.205536 
	C221.761551,323.496490 212.999786,327.558899 204.173721,332.450989 
z"/>
<path fill="#1F91AE" opacity="1.000000" stroke="none" 
	d="
M188.963989,261.899780 
	C200.961105,256.282990 212.928452,250.601379 224.964676,245.069672 
	C234.791397,240.553436 244.711670,236.241226 254.570404,231.794083 
	C270.969574,224.396606 287.352692,216.963501 304.778778,209.076401 
	C299.094849,205.796387 293.948059,202.923920 288.917175,199.861115 
	C287.487244,198.990601 286.394623,197.565979 285.147339,196.395447 
	C286.419434,195.262772 287.512817,193.739685 288.993195,193.062012 
	C297.330902,189.245255 305.698883,185.474747 314.210510,182.073822 
	C316.039337,181.343094 318.776733,181.594193 320.623413,182.432785 
	C327.194977,185.416916 333.610779,188.761337 339.958191,192.204147 
	C340.958771,192.746857 341.844116,194.495331 341.862183,195.700119 
	C342.014496,205.855591 342.194702,216.025360 341.730774,226.161728 
	C341.647614,227.978653 338.959808,230.361176 336.928345,231.297913 
	C317.166870,240.410324 297.317230,249.333786 277.434631,258.180603 
	C263.837555,264.230652 250.090500,269.945251 236.521454,276.056183 
	C228.040985,279.875427 219.775162,284.170105 211.391891,288.207581 
	C209.933044,288.910217 208.369125,289.394684 206.201202,289.919464 
	C205.024231,289.604248 204.499786,289.349487 204.269836,288.894501 
	C206.092773,288.102020 207.621262,287.509705 209.372559,286.807159 
	C210.026688,286.216553 210.457977,285.736206 211.180466,285.059845 
	C217.530899,282.159668 223.626312,279.532990 229.637985,276.726868 
	C234.448898,274.481232 239.086334,271.856628 243.932922,269.696777 
	C248.603531,267.615326 253.529465,266.104919 258.191589,264.006744 
	C268.636841,259.305878 278.953674,254.320328 289.385406,249.588715 
	C304.345673,242.803040 319.409027,236.241867 334.295837,229.300613 
	C336.218384,228.404221 338.454376,225.926987 338.655487,223.986191 
	C339.476410,216.064865 339.920990,208.057922 339.709747,200.103638 
	C339.643402,197.606094 337.654144,194.367828 335.547852,192.887726 
	C331.649597,190.148453 327.123444,188.179810 322.646454,186.435104 
	C320.128021,185.453659 316.878662,184.600296 314.491699,185.361313 
	C307.706177,187.524643 301.083191,190.307739 294.615723,193.318466 
	C290.567017,195.203217 290.547089,197.943985 294.286743,200.397003 
	C296.916809,202.122177 300.202301,202.968048 302.544739,204.968246 
	C304.028625,206.235352 305.580444,209.826187 304.896576,210.760208 
	C303.126709,213.177429 300.381836,215.271149 297.587494,216.479309 
	C286.373016,221.328018 274.905945,225.593597 263.701752,230.464569 
	C255.685333,233.949677 248.001129,238.190933 240.055466,241.848831 
	C230.887360,246.069489 221.615997,250.068863 212.349701,254.072281 
	C204.589432,257.425018 196.771957,260.645355 188.977676,263.586884 
	C188.971695,262.799561 188.967850,262.349670 188.963989,261.899780 
z"/>
<path fill="#1F91AE" opacity="1.000000" stroke="none" 
	d="
M226.059845,183.002243 
	C218.523453,179.021591 211.365448,175.098724 203.626083,170.857254 
	C205.234268,169.565811 206.109131,168.606888 207.188980,168.035019 
	C220.517441,160.976746 233.823181,153.870407 247.293396,147.091644 
	C248.966064,146.249878 251.887878,146.564697 253.662369,147.464630 
	C265.801941,153.621078 277.813477,160.032578 289.808563,166.469437 
	C292.595428,167.964935 295.159515,169.875595 297.826111,171.595230 
	C295.174561,173.248260 292.642853,175.148224 289.847626,176.505264 
	C283.070190,179.795517 276.173492,182.840546 269.317993,185.969345 
	C265.721252,187.610870 262.463837,187.406662 259.204559,184.800186 
	C257.192352,183.191010 254.714600,182.031921 252.273163,181.147430 
	C251.060242,180.708008 249.180984,180.889618 248.077332,181.565048 
	C241.074417,185.850876 234.089737,188.780319 226.059845,183.002243 
M229.305481,180.381851 
	C233.010635,181.448761 236.596359,184.394653 240.611069,181.435547 
	C247.819656,176.122345 254.808823,177.770020 262.076294,181.478424 
	C264.198975,182.561569 267.436035,183.061844 269.551819,182.245972 
	C275.072754,180.117020 280.207672,177.009064 285.588806,174.488464 
	C289.875885,172.480362 288.606537,169.976517 285.897522,168.236679 
	C280.888580,165.019775 275.532104,162.342499 270.308563,159.461884 
	C267.297119,157.801178 264.051575,156.476791 261.278107,154.489304 
	C253.220566,148.715195 249.865570,148.497879 241.409119,153.300232 
	C233.123077,158.005814 224.674011,162.423996 216.378326,167.113113 
	C214.760864,168.027405 213.518997,169.606186 212.103912,170.878494 
	C213.863464,172.227020 215.477722,173.854080 217.413879,174.864105 
	C221.060837,176.766586 224.893356,178.313385 229.305481,180.381851 
z"/>
<path fill="#2490AB" opacity="1.000000" stroke="none" 
	d="
M204.229614,332.083984 
	C212.999786,327.558899 221.761551,323.496490 230.409897,319.205536 
	C235.320450,316.769104 239.574234,319.049652 243.269608,321.346710 
	C248.183105,324.400940 252.761322,324.991089 257.480591,321.938232 
	C264.886566,317.147461 271.950256,317.403442 279.397156,321.946014 
	C284.557739,325.093933 290.147278,327.535522 295.517303,330.345947 
	C296.518280,330.869781 297.386932,331.646301 299.167236,332.910034 
	C295.737946,334.815033 293.491333,336.162781 291.159363,337.341797 
	C279.149933,343.413696 267.092407,349.390991 255.112473,355.520264 
	C251.908279,357.159607 249.114548,357.234344 245.831497,355.491180 
	C233.583313,348.987946 221.176926,342.783173 208.898575,336.335632 
	C207.131042,335.407501 205.739349,333.763611 204.229614,332.083984 
M242.999939,350.000549 
	C242.999939,350.000549 242.991776,349.993286 243.524338,350.480530 
	C247.474747,353.404022 251.831619,354.068359 256.221802,351.958588 
	C266.809906,346.870422 277.305908,341.588531 287.788727,336.285339 
	C289.605377,335.366302 291.175262,333.959534 293.422852,332.382538 
	C285.693329,328.406525 278.881409,324.738831 271.894257,321.442535 
	C270.446014,320.759308 268.231812,321.079376 266.571075,321.589569 
	C262.483643,322.845337 258.241486,324.000397 254.560883,326.079803 
	C249.480698,328.949921 246.089981,326.970734 242.058884,323.960541 
	C239.770157,322.251434 235.798004,320.779846 233.413620,321.603394 
	C226.911255,323.849243 220.790329,327.256287 214.635971,330.431427 
	C210.956726,332.329620 212.072342,335.189850 214.746124,336.549835 
	C224.043198,341.278717 233.568680,345.558502 242.999939,350.000549 
z"/>
<path fill="#1C96B4" opacity="1.000000" stroke="none" 
	d="
M262.074066,286.191284 
	C267.301025,283.520569 272.328339,280.289948 277.810547,278.335052 
	C283.403076,276.340820 288.183167,280.226074 292.935791,282.555267 
	C299.084015,285.568451 305.010101,289.034882 311.208801,292.402313 
	C311.916412,289.821411 312.461914,287.831696 313.233124,285.808411 
	C313.642548,288.100433 313.826233,290.425995 313.941223,293.041992 
	C312.989502,293.867218 311.812225,295.073700 311.268097,294.835266 
	C304.034790,291.666016 296.976807,288.084961 289.683746,285.069183 
	C286.487122,283.747314 282.726990,282.517242 279.453125,282.957764 
	C274.813690,283.582062 270.269257,285.517212 265.907654,287.407684 
	C262.497101,288.885986 262.173065,292.746277 265.237915,294.490082 
	C276.395691,300.838531 287.682953,306.959625 298.933746,313.143951 
	C299.505280,313.458099 300.237427,313.475677 300.818207,313.778259 
	C304.298279,315.591248 307.711578,317.539673 311.246033,319.236938 
	C312.425537,319.803314 314.080353,320.294769 315.200226,319.905792 
	C319.206573,318.514404 323.076660,316.730682 327.190125,315.271057 
	C327.894714,315.910309 328.407471,316.373901 328.920197,316.837524 
	C325.339355,318.865509 321.908051,321.269348 318.119965,322.776489 
	C315.948517,323.640411 312.633118,324.020569 310.798096,322.955414 
	C297.669281,315.334778 283.676086,309.419128 270.414398,302.087128 
	C266.165894,299.738281 261.954865,297.321716 257.249359,294.547485 
	C256.156219,292.406158 255.540405,290.653473 254.924591,288.900818 
	C254.924576,288.900818 254.969254,288.949249 255.165024,288.850586 
	C255.630676,288.549896 255.900558,288.347900 256.170441,288.145905 
	C256.578369,287.817047 256.986298,287.488190 257.867188,287.246094 
	C258.899567,287.210266 259.458954,287.087677 260.018372,286.965118 
	C260.018372,286.965118 260.014252,287.021667 260.268585,286.957336 
	C261.039978,286.659088 261.557007,286.425201 262.074066,286.191284 
z"/>
<path fill="#2490AB" opacity="1.000000" stroke="none" 
	d="
M203.975357,289.094696 
	C204.499786,289.349487 205.024231,289.604248 205.827393,289.947693 
	C202.857544,291.873138 199.608978,293.709869 195.794830,295.866394 
	C200.676651,298.467316 205.345932,300.769440 209.800186,303.431335 
	C211.307037,304.331879 212.912796,306.013611 213.229355,307.588409 
	C213.406723,308.470825 211.230042,310.264832 209.783356,310.962952 
	C201.545609,314.938171 193.263733,318.836945 184.854584,322.428558 
	C183.304688,323.090546 180.853928,322.742706 179.245819,321.971252 
	C173.489532,319.209717 167.931931,316.036530 162.268509,313.077759 
	C159.187851,311.468353 157.734283,309.227539 157.956436,305.547791 
	C158.494858,296.628754 158.466827,287.670074 159.217346,278.773773 
	C159.377899,276.870453 161.498306,274.421967 163.351410,273.494537 
	C171.514999,269.408844 179.911148,265.787872 188.593536,261.949158 
	C188.967850,262.349670 188.971695,262.799561 188.661346,263.742920 
	C181.756912,267.369232 175.157623,270.483276 168.579361,273.641083 
	C163.589005,276.036621 160.121613,279.311737 160.917252,285.586212 
	C161.311478,288.694946 161.460846,291.995789 160.862366,295.040985 
	C158.496246,307.080505 165.257568,312.560089 174.952377,317.234406 
	C181.203217,320.248260 186.366302,319.512085 191.953613,316.749146 
	C196.251999,314.623566 200.541016,312.479065 204.839691,310.354095 
	C206.412048,309.576813 208.000183,308.831482 210.955353,307.411011 
	C206.710327,304.876648 203.412674,303.240601 200.518494,301.067261 
	C198.465790,299.525818 196.957962,297.258820 195.206940,295.315704 
	C197.326233,293.452240 199.397217,291.528473 201.596909,289.765320 
	C202.188690,289.290985 203.171844,289.304901 203.975357,289.094696 
z"/>
<path fill="#1F91AE" opacity="1.000000" stroke="none" 
	d="
M314.009949,292.751556 
	C313.826233,290.425995 313.642548,288.100433 313.316772,285.427551 
	C313.123596,278.751373 312.766144,272.401245 313.204346,266.106476 
	C313.339203,264.169495 315.241882,261.605896 317.034851,260.670410 
	C323.122284,257.494385 329.550262,254.977982 335.795593,252.095642 
	C341.718475,249.362091 341.887085,249.431808 341.742981,257.021240 
	C341.375916,272.549622 341.190216,287.294342 341.126709,302.039581 
	C341.123871,302.696655 342.232910,303.358551 342.824036,304.018188 
	C341.908813,311.869934 335.153748,313.672974 329.276428,316.795837 
	C328.407471,316.373901 327.894714,315.910309 327.212402,315.241882 
	C327.042877,315.036987 327.093750,314.986572 327.340332,314.907410 
	C328.043457,314.585571 328.499969,314.342926 329.208618,314.084625 
	C330.072174,313.341675 330.683533,312.614380 331.400879,311.790710 
	C331.644073,311.562469 331.773743,311.423492 332.277527,311.206116 
	C338.122650,310.112152 340.310059,307.026398 340.148987,301.300018 
	C339.802582,288.985077 340.059479,276.653717 340.022522,264.329224 
	C340.000336,256.930084 337.535431,255.293625 330.364410,257.844391 
	C329.111145,258.290192 327.845245,258.758301 326.683929,259.395966 
	C314.739868,265.954712 315.617706,262.962677 316.266266,277.960571 
	C316.477661,282.849243 314.815308,287.818939 314.009949,292.751556 
z"/>
<path fill="#2490AB" opacity="1.000000" stroke="none" 
	d="
M242.124619,216.032639 
	C235.085861,219.322556 228.133392,222.824570 220.945755,225.748474 
	C219.218002,226.451324 216.442764,225.755630 214.606537,224.812668 
	C206.452011,220.625076 198.466156,216.109268 190.409927,211.729431 
	C189.874161,211.438141 189.260574,211.290024 187.985001,210.815674 
	C187.985001,215.905899 187.985001,220.490219 187.774689,225.846176 
	C187.727432,228.110687 187.890518,229.603577 188.053604,231.096451 
	C188.293137,232.366333 189.026535,233.798386 188.673447,234.873672 
	C187.836563,237.422256 187.129852,241.037704 185.226562,242.031921 
	C177.630249,246.000015 169.596848,249.131317 161.222229,252.349182 
	C160.466522,251.094330 160.213791,250.062653 160.211975,249.021027 
	C160.629807,249.003174 160.796707,248.995239 161.361115,248.984924 
	C167.006546,247.005295 172.229111,244.957199 177.508652,243.068390 
	C184.397980,240.603653 186.733414,235.677902 186.120789,228.632309 
	C185.718384,224.004364 185.959839,219.315048 186.012833,214.654358 
	C186.070770,209.558258 189.055466,207.945236 193.425751,210.359604 
	C198.936310,213.403931 204.888641,215.764648 210.045151,219.302460 
	C215.656143,223.152100 221.145126,222.773392 227.298920,220.933151 
	C228.036667,220.586563 228.514267,220.324936 229.009750,220.047943 
	C229.027649,220.032547 229.057541,219.996002 229.221375,219.853226 
	C229.597351,219.513123 229.796112,219.303146 230.313156,218.988312 
	C231.742233,218.561996 232.839630,218.227875 234.263214,217.838257 
	C235.732635,216.916138 236.875870,216.049500 238.049408,215.150269 
	C238.079712,215.117661 238.138962,215.051193 238.471710,215.128098 
	C239.911194,215.480881 241.017899,215.756760 242.124619,216.032639 
z"/>
<path fill="#3693AA" opacity="1.000000" stroke="none" 
	d="
M159.961060,249.030960 
	C160.213791,250.062653 160.466522,251.094330 160.873383,252.409714 
	C160.013672,250.832291 158.145782,248.983032 158.119781,247.108200 
	C157.891907,230.684311 158.079010,214.255112 157.940552,197.829208 
	C157.902054,193.261673 160.739594,191.521484 164.666901,190.089813 
	C165.137238,190.154984 165.367081,190.410782 165.154846,190.638885 
	C163.620407,191.886795 162.298203,192.906631 160.779907,194.298615 
	C160.365540,196.641922 159.963104,198.612640 159.958115,200.584366 
	C159.917236,216.733124 159.950394,232.882065 159.961060,249.030960 
z"/>
<path fill="#1C96B4" opacity="1.000000" stroke="none" 
	d="
M342.880005,303.551178 
	C342.232910,303.358551 341.123871,302.696655 341.126709,302.039581 
	C341.190216,287.294342 341.375916,272.549622 341.695007,257.429626 
	C342.222961,258.787415 342.906433,260.518524 342.916534,262.253540 
	C342.995758,275.863312 342.945984,289.473877 342.880005,303.551178 
z"/>
<path fill="#1C96B4" opacity="1.000000" stroke="none" 
	d="
M193.092392,182.981964 
	C193.092392,182.981964 193.549408,183.039688 194.016296,183.259674 
	C195.026611,183.663147 195.570053,183.846634 196.113480,184.030121 
	C196.113480,184.030121 196.490356,184.066147 196.855011,184.307892 
	C197.491379,184.747284 197.786484,184.899643 198.104965,185.006683 
	C198.104965,185.006683 198.528793,185.059998 198.916504,185.280640 
	C199.558502,185.694321 199.829254,185.860550 200.116470,185.999985 
	C200.116470,185.999985 200.503494,186.057266 200.882050,186.286499 
	C201.553162,186.677887 201.845703,186.840042 202.138260,187.002197 
	C202.138260,187.002197 202.562668,187.055603 202.938812,187.277740 
	C203.556015,187.691971 203.814484,187.856705 204.090378,187.994110 
	C204.090378,187.994110 204.005981,187.993011 204.179993,188.247375 
	C205.588165,188.993317 206.822311,189.484894 208.056458,189.976456 
	C208.056458,189.976456 207.994858,189.994919 208.159912,190.158859 
	C208.583344,190.548187 208.841736,190.773560 209.100113,190.998947 
	C209.100113,190.998947 208.986877,191.023682 209.258987,191.141968 
	C210.380814,191.495834 211.230545,191.731415 212.080261,191.966995 
	C212.080261,191.966995 212.010452,191.976013 212.129791,192.197800 
	C212.534286,192.907272 212.819458,193.394943 213.212051,194.128098 
	C213.562317,194.851242 213.805161,195.328918 213.780319,195.942078 
	C204.311874,191.563416 195.111130,187.049240 185.820312,182.276093 
	C185.525879,181.311264 185.321533,180.605408 185.117188,179.899567 
	C185.495621,179.715240 185.874069,179.530914 186.775238,179.854813 
	C188.568100,180.904739 189.838242,181.446442 191.108383,181.988144 
	C191.108383,181.988144 191.538452,182.042862 191.920868,182.267548 
	C192.549850,182.682022 192.812881,182.845261 193.092392,182.981964 
z"/>
<path fill="#1C96B4" opacity="1.000000" stroke="none" 
	d="
M242.335388,215.988068 
	C241.017899,215.756760 239.911194,215.480881 238.687714,214.913788 
	C241.696426,212.649841 242.129425,210.799911 238.315521,209.154663 
	C237.401413,208.760315 236.207001,208.634094 235.603073,207.966812 
	C232.562378,204.607010 226.406067,205.477707 225.287994,200.046722 
	C226.109787,200.009399 226.579330,199.987015 227.048859,199.964645 
	C227.048859,199.964645 227.000412,199.995560 227.187897,200.258804 
	C228.601196,200.990814 229.826996,201.459579 231.052811,201.928360 
	C231.052811,201.928360 231.029465,201.992569 231.238525,202.218201 
	C232.650986,202.949005 233.854401,203.454178 235.057800,203.959351 
	C235.057800,203.959351 235.003754,203.993057 235.132904,204.293945 
	C237.503967,205.723419 239.745911,206.851974 241.987839,207.980545 
	C241.987839,207.980545 242.026398,207.971542 242.217346,208.257950 
	C245.197861,210.763245 244.906708,213.210922 242.945816,215.782608 
	C242.945816,215.782608 242.546143,215.943481 242.335388,215.988068 
z"/>
<path fill="#3693AA" opacity="1.000000" stroke="none" 
	d="
M184.740677,179.959106 
	C185.321533,180.605408 185.525879,181.311264 185.478271,182.453857 
	C178.606583,185.397324 171.986832,187.904053 165.367081,190.410782 
	C165.367081,190.410782 165.137238,190.154984 165.022369,190.027039 
	C171.393051,186.605606 177.878601,183.312134 184.740677,179.959106 
z"/>
<path fill="#2490AB" opacity="1.000000" stroke="none" 
	d="
M243.303406,215.837677 
	C244.906708,213.210922 245.197861,210.763245 242.215897,208.277695 
	C244.316193,208.955338 246.608871,209.899658 250.461044,211.486282 
	C247.362610,213.494095 245.511810,214.693420 243.303406,215.837677 
z"/>
<path fill="#3693AA" opacity="1.000000" stroke="none" 
	d="
M254.593948,288.947937 
	C255.540405,290.653473 256.156219,292.406158 256.875244,294.487976 
	C254.689423,293.521851 250.231812,293.237854 254.593948,288.947937 
z"/>
<path fill="#2490AB" opacity="1.000000" stroke="none" 
	d="
M241.859955,207.664276 
	C239.745911,206.851974 237.503967,205.723419 235.148727,204.266296 
	C237.267639,205.074509 239.499863,206.211243 241.859955,207.664276 
z"/>
<path fill="#2490AB" opacity="1.000000" stroke="none" 
	d="
M214.048019,195.806580 
	C213.805161,195.328918 213.562317,194.851242 213.545502,194.142563 
	C214.218460,193.921051 214.665359,193.930542 215.112274,193.940033 
	C216.971054,194.748749 218.829834,195.557465 220.803116,196.733658 
	C220.917633,197.101135 220.792099,197.250229 220.444351,197.206955 
	C219.394852,197.167084 218.693100,197.170486 217.721375,197.087128 
	C217.272995,196.937897 217.094574,196.875427 216.769470,196.685364 
	C216.423065,196.389267 216.212906,196.234955 215.666245,196.060867 
	C214.909454,195.953461 214.478729,195.880020 214.048019,195.806580 
z"/>
<path fill="#2490AB" opacity="1.000000" stroke="none" 
	d="
M226.914825,199.678970 
	C226.579330,199.987015 226.109787,200.009399 225.048126,200.008072 
	C224.456009,199.984360 223.974106,199.915497 223.819565,199.763107 
	C223.452972,199.412491 223.227905,199.230331 222.738342,199.070724 
	C222.319138,199.076233 222.151413,199.075226 221.819611,198.855515 
	C221.367722,198.174622 221.079910,197.712418 220.792099,197.250229 
	C220.792099,197.250229 220.917633,197.101135 220.980438,197.026642 
	C221.499985,196.981644 221.956757,197.011154 222.893921,197.271515 
	C223.586548,197.660416 223.798538,197.818741 224.010330,197.977371 
	C224.933823,198.449341 225.857315,198.921326 226.914825,199.678970 
z"/>
<path fill="#07A1C7" opacity="1.000000" stroke="none" 
	d="
M188.355591,230.908066 
	C187.890518,229.603577 187.727432,228.110687 187.697113,226.306122 
	C188.105759,227.569519 188.381668,229.144608 188.355591,230.908066 
z"/>
<path fill="#2490AB" opacity="1.000000" stroke="none" 
	d="
M230.895813,201.631470 
	C229.826996,201.459579 228.601196,200.990814 227.200150,200.232788 
	C228.262894,200.407211 229.500870,200.870895 230.895813,201.631470 
z"/>
<path fill="#3693AA" opacity="1.000000" stroke="none" 
	d="
M190.944534,181.669098 
	C189.838242,181.446442 188.568100,180.904739 187.014282,180.108047 
	C188.080627,180.352066 189.430664,180.851059 190.944534,181.669098 
z"/>
<path fill="#3693AA" opacity="1.000000" stroke="none" 
	d="
M207.902618,189.672791 
	C206.822311,189.484894 205.588165,188.993317 204.180954,188.205200 
	C205.254852,188.395462 206.501801,188.882294 207.902618,189.672791 
z"/>
<path fill="#2490AB" opacity="1.000000" stroke="none" 
	d="
M234.899323,203.662628 
	C233.854401,203.454178 232.650986,202.949005 231.234787,202.184448 
	C232.261612,202.405319 233.501221,202.885605 234.899323,203.662628 
z"/>
<path fill="#3693AA" opacity="1.000000" stroke="none" 
	d="
M214.969879,193.647827 
	C214.665359,193.930542 214.218460,193.921051 213.438080,193.897095 
	C212.819458,193.394943 212.534286,192.907272 212.128815,192.162628 
	C212.948181,192.388977 213.887848,192.872299 214.969879,193.647827 
z"/>
<path fill="#3693AA" opacity="1.000000" stroke="none" 
	d="
M211.903748,191.661911 
	C211.230545,191.731415 210.380814,191.495834 209.245483,191.085602 
	C209.882324,191.059570 210.804779,191.208206 211.903748,191.661911 
z"/>
<path fill="#3693AA" opacity="1.000000" stroke="none" 
	d="
M195.946198,183.762115 
	C195.570053,183.846634 195.026611,183.663147 194.234222,183.334229 
	C194.583145,183.290573 195.181030,183.392349 195.946198,183.762115 
z"/>
<path fill="#3693AA" opacity="1.000000" stroke="none" 
	d="
M261.763428,286.141846 
	C261.557007,286.425201 261.039978,286.659088 260.243378,286.944397 
	C260.460175,286.694672 260.956482,286.393555 261.763428,286.141846 
z"/>
<path fill="#3693AA" opacity="1.000000" stroke="none" 
	d="
M259.667603,286.981689 
	C259.458954,287.087677 258.899567,287.210266 258.130737,287.241333 
	C258.386536,287.099274 258.851685,287.048767 259.667603,286.981689 
z"/>
<path fill="#3693AA" opacity="1.000000" stroke="none" 
	d="
M192.989334,182.737610 
	C192.812881,182.845261 192.549850,182.682022 192.124664,182.341385 
	C192.259460,182.291443 192.572861,182.392334 192.989334,182.737610 
z"/>
<path fill="#3693AA" opacity="1.000000" stroke="none" 
	d="
M197.970825,184.766449 
	C197.786484,184.899643 197.491379,184.747284 197.026855,184.387268 
	C197.168243,184.325363 197.502457,184.425781 197.970825,184.766449 
z"/>
<path fill="#3693AA" opacity="1.000000" stroke="none" 
	d="
M200.008469,185.748993 
	C199.829254,185.860550 199.558502,185.694321 199.118774,185.349243 
	C199.255707,185.297455 199.578094,185.397720 200.008469,185.748993 
z"/>
<path fill="#3693AA" opacity="1.000000" stroke="none" 
	d="
M202.017303,186.743652 
	C201.845703,186.840042 201.553162,186.677887 201.065399,186.354660 
	C201.212250,186.290756 201.554291,186.387939 202.017303,186.743652 
z"/>
<path fill="#3693AA" opacity="1.000000" stroke="none" 
	d="
M203.994247,187.746613 
	C203.814484,187.856705 203.556015,187.691971 203.140778,187.348145 
	C203.277100,187.297318 203.587616,187.398224 203.994247,187.746613 
z"/>
<path fill="#3693AA" opacity="1.000000" stroke="none" 
	d="
M209.001190,190.743088 
	C208.841736,190.773560 208.583344,190.548187 208.157745,190.126770 
	C208.294449,190.116241 208.598358,190.301727 209.001190,190.743088 
z"/>
<path fill="#3693AA" opacity="1.000000" stroke="none" 
	d="
M255.875671,288.111694 
	C255.900558,288.347900 255.630676,288.549896 255.137329,288.868408 
	C255.136230,288.682495 255.358566,288.380005 255.875671,288.111694 
z"/>
<path fill="#1C96B4" opacity="1.000000" stroke="none" 
	d="
M223.921692,197.774048 
	C223.798538,197.818741 223.586548,197.660416 223.220520,197.377258 
	C223.402359,197.165482 223.657822,197.271698 223.921692,197.774048 
z"/>
<path fill="#07A2C8" opacity="1.000000" stroke="none" 
	d="
M204.269836,288.894501 
	C203.171844,289.304901 202.188690,289.290985 201.596909,289.765320 
	C199.397217,291.528473 197.326233,293.452240 195.206940,295.315704 
	C196.957962,297.258820 198.465790,299.525818 200.518494,301.067261 
	C203.412674,303.240601 206.710327,304.876648 210.955353,307.411011 
	C208.000183,308.831482 206.412048,309.576813 204.839691,310.354095 
	C200.541016,312.479065 196.251999,314.623566 191.953613,316.749146 
	C186.366302,319.512085 181.203217,320.248260 174.952377,317.234406 
	C165.257568,312.560089 158.496246,307.080505 160.862366,295.040985 
	C161.460846,291.995789 161.311478,288.694946 160.917252,285.586212 
	C160.121613,279.311737 163.589005,276.036621 168.579361,273.641083 
	C175.157623,270.483276 181.756912,267.369232 188.663483,264.080353 
	C196.771957,260.645355 204.589432,257.425018 212.349701,254.072281 
	C221.615997,250.068863 230.887360,246.069489 240.055466,241.848831 
	C248.001129,238.190933 255.685333,233.949677 263.701752,230.464569 
	C274.905945,225.593597 286.373016,221.328018 297.587494,216.479309 
	C300.381836,215.271149 303.126709,213.177429 304.896576,210.760208 
	C305.580444,209.826187 304.028625,206.235352 302.544739,204.968246 
	C300.202301,202.968048 296.916809,202.122177 294.286743,200.397003 
	C290.547089,197.943985 290.567017,195.203217 294.615723,193.318466 
	C301.083191,190.307739 307.706177,187.524643 314.491699,185.361313 
	C316.878662,184.600296 320.128021,185.453659 322.646454,186.435104 
	C327.123444,188.179810 331.649597,190.148453 335.547852,192.887726 
	C337.654144,194.367828 339.643402,197.606094 339.709747,200.103638 
	C339.920990,208.057922 339.476410,216.064865 338.655487,223.986191 
	C338.454376,225.926987 336.218384,228.404221 334.295837,229.300613 
	C319.409027,236.241867 304.345673,242.803040 289.385406,249.588715 
	C278.953674,254.320328 268.636841,259.305878 258.191589,264.006744 
	C253.529465,266.104919 248.603531,267.615326 243.932922,269.696777 
	C239.086334,271.856628 234.448898,274.481232 229.637985,276.726868 
	C223.626312,279.532990 217.530899,282.159668 210.974228,285.180786 
	C210.034454,285.970978 209.592102,286.444214 209.149750,286.917419 
	C207.621262,287.509705 206.092773,288.102020 204.269836,288.894501 
M205.509003,285.521210 
	C205.509003,285.521210 205.503662,285.492859 205.509003,285.521210 
z"/>
<path fill="#2490AB" opacity="1.000000" stroke="none" 
	d="
M209.372559,286.807159 
	C209.592102,286.444214 210.034454,285.970978 210.683044,285.376801 
	C210.457977,285.736206 210.026688,286.216553 209.372559,286.807159 
z"/>
<path fill="#06A3C9" opacity="1.000000" stroke="none" 
	d="
M228.977112,180.194946 
	C224.893356,178.313385 221.060837,176.766586 217.413879,174.864105 
	C215.477722,173.854080 213.863464,172.227020 212.103912,170.878479 
	C213.518997,169.606186 214.760864,168.027405 216.378326,167.113113 
	C224.674011,162.423996 233.123077,158.005814 241.409119,153.300232 
	C249.865570,148.497879 253.220566,148.715195 261.278107,154.489304 
	C264.051575,156.476791 267.297119,157.801178 270.308563,159.461884 
	C275.532104,162.342499 280.888580,165.019775 285.897522,168.236679 
	C288.606537,169.976517 289.875885,172.480362 285.588806,174.488464 
	C280.207672,177.009064 275.072754,180.117020 269.551819,182.245972 
	C267.436035,183.061844 264.198975,182.561569 262.076294,181.478424 
	C254.808823,177.770020 247.819656,176.122345 240.611069,181.435547 
	C236.596359,184.394653 233.010635,181.448761 228.977112,180.194946 
z"/>
<path fill="#07A2C9" opacity="1.000000" stroke="none" 
	d="
M243.007294,350.009094 
	C233.568680,345.558502 224.043198,341.278717 214.746124,336.549835 
	C212.072342,335.189850 210.956726,332.329620 214.635971,330.431427 
	C220.790329,327.256287 226.911255,323.849243 233.413620,321.603394 
	C235.798004,320.779846 239.770157,322.251434 242.058884,323.960541 
	C246.089981,326.970734 249.480698,328.949921 254.560883,326.079803 
	C258.241486,324.000397 262.483643,322.845337 266.571075,321.589569 
	C268.231812,321.079376 270.446014,320.759308 271.894257,321.442535 
	C278.881409,324.738831 285.693329,328.406525 293.422852,332.382538 
	C291.175262,333.959534 289.605377,335.366302 287.788727,336.285339 
	C277.305908,341.588531 266.809906,346.870422 256.221802,351.958588 
	C251.831619,354.068359 247.474747,353.404022 243.277237,350.220825 
	C243.030136,349.961090 243.007294,350.009094 243.007294,350.009094 
z"/>
<path fill="#06A3C9" opacity="1.000000" stroke="none" 
	d="
M313.941223,293.041992 
	C314.815308,287.818939 316.477661,282.849243 316.266266,277.960571 
	C315.617706,262.962677 314.739868,265.954712 326.683929,259.395966 
	C327.845245,258.758301 329.111145,258.290192 330.364410,257.844391 
	C337.535431,255.293625 340.000336,256.930084 340.022522,264.329224 
	C340.059479,276.653717 339.802582,288.985077 340.148987,301.300018 
	C340.310059,307.026398 338.122650,310.112152 332.173157,311.300598 
	C331.548798,311.599548 331.418091,311.739838 331.294922,311.887115 
	C330.683533,312.614380 330.072174,313.341675 329.020172,314.002838 
	C328.084290,314.286682 327.589020,314.636627 327.093750,314.986572 
	C327.093750,314.986572 327.042877,315.036987 327.020569,315.066162 
	C323.076660,316.730682 319.206573,318.514404 315.200226,319.905792 
	C314.080353,320.294769 312.425537,319.803314 311.246033,319.236938 
	C307.711578,317.539673 304.298279,315.591248 300.818207,313.778259 
	C300.237427,313.475677 299.505280,313.458099 298.933746,313.143951 
	C287.682953,306.959625 276.395691,300.838531 265.237915,294.490082 
	C262.173065,292.746277 262.497101,288.885986 265.907654,287.407684 
	C270.269257,285.517212 274.813690,283.582062 279.453125,282.957764 
	C282.726990,282.517242 286.487122,283.747314 289.683746,285.069183 
	C296.976807,288.084961 304.034790,291.666016 311.268097,294.835266 
	C311.812225,295.073700 312.989502,293.867218 313.941223,293.041992 
z"/>
<path fill="#1C96B4" opacity="1.000000" stroke="none" 
	d="
M327.340332,314.907410 
	C327.589020,314.636627 328.084290,314.286682 328.768005,314.018524 
	C328.499969,314.342926 328.043457,314.585571 327.340332,314.907410 
z"/>
<path fill="#1C96B4" opacity="1.000000" stroke="none" 
	d="
M331.400879,311.790710 
	C331.418091,311.739838 331.548798,311.599548 331.791382,311.371857 
	C331.773743,311.423492 331.644073,311.562469 331.400879,311.790710 
z"/>
<path fill="#07A1C7" opacity="1.000000" stroke="none" 
	d="
M223.974106,199.915497 
	C223.974106,199.915497 224.456009,199.984360 224.695862,200.023010 
	C226.406067,205.477707 232.562378,204.607010 235.603073,207.966812 
	C236.207001,208.634094 237.401413,208.760315 238.315521,209.154663 
	C242.129425,210.799911 241.696426,212.649841 238.354965,214.836884 
	C238.138962,215.051193 238.079712,215.117661 237.774506,215.061081 
	C236.291870,215.967575 235.114441,216.930649 233.937027,217.893738 
	C232.839630,218.227875 231.742233,218.561996 230.151459,219.132050 
	C229.447128,219.566986 229.246933,219.776337 229.057541,219.996002 
	C229.057541,219.996002 229.027649,220.032547 228.748001,220.127090 
	C227.991821,220.487122 227.515305,220.752625 227.038773,221.018127 
	C221.145126,222.773392 215.656143,223.152100 210.045151,219.302460 
	C204.888641,215.764648 198.936310,213.403931 193.425751,210.359604 
	C189.055466,207.945236 186.070770,209.558258 186.012833,214.654358 
	C185.959839,219.315048 185.718384,224.004364 186.120789,228.632309 
	C186.733414,235.677902 184.397980,240.603653 177.508652,243.068390 
	C172.229111,244.957199 167.006546,247.005295 161.366364,248.517822 
	C160.974747,230.010880 160.975372,211.968674 160.976013,193.926468 
	C162.298203,192.906631 163.620407,191.886795 165.154846,190.638885 
	C171.986832,187.904053 178.606583,185.397324 185.568359,182.712845 
	C195.111130,187.049240 204.311874,191.563416 213.780319,195.942078 
	C214.478729,195.880020 214.909454,195.953461 215.810135,196.194336 
	C216.476151,196.534698 216.688171,196.685089 216.916138,196.812958 
	C217.094574,196.875427 217.272995,196.937897 217.831909,197.358673 
	C219.469513,198.169388 220.726608,198.621811 221.983688,199.074219 
	C222.151413,199.075226 222.319138,199.076233 222.892975,199.223236 
	C223.510895,199.567673 223.735886,199.749756 223.974106,199.915497 
z"/>
<path fill="#1F91AE" opacity="1.000000" stroke="none" 
	d="
M160.779907,194.298615 
	C160.975372,211.968674 160.974747,230.010880 160.968857,248.520203 
	C160.796707,248.995239 160.629807,249.003174 160.211975,249.021027 
	C159.950394,232.882065 159.917236,216.733124 159.958115,200.584366 
	C159.963104,198.612640 160.365540,196.641922 160.779907,194.298615 
z"/>
<path fill="#1C96B4" opacity="1.000000" stroke="none" 
	d="
M234.263214,217.838257 
	C235.114441,216.930649 236.291870,215.967575 237.744202,215.093689 
	C236.875870,216.049500 235.732635,216.916138 234.263214,217.838257 
z"/>
<path fill="#1C96B4" opacity="1.000000" stroke="none" 
	d="
M227.298920,220.933151 
	C227.515305,220.752625 227.991821,220.487122 228.730103,220.142487 
	C228.514267,220.324936 228.036667,220.586563 227.298920,220.933151 
z"/>
<path fill="#1C96B4" opacity="1.000000" stroke="none" 
	d="
M229.221375,219.853226 
	C229.246933,219.776337 229.447128,219.566986 229.819794,219.224228 
	C229.796112,219.303146 229.597351,219.513123 229.221375,219.853226 
z"/>
<path fill="#1C96B4" opacity="1.000000" stroke="none" 
	d="
M221.819611,198.855515 
	C220.726608,198.621811 219.469513,198.169388 218.101898,197.445435 
	C218.693100,197.170486 219.394852,197.167084 220.444351,197.206955 
	C221.079910,197.712418 221.367722,198.174622 221.819611,198.855515 
z"/>
<path fill="#1C96B4" opacity="1.000000" stroke="none" 
	d="
M216.769470,196.685364 
	C216.688171,196.685089 216.476151,196.534698 216.136215,196.228302 
	C216.212906,196.234955 216.423065,196.389267 216.769470,196.685364 
z"/>
<path fill="#1C96B4" opacity="1.000000" stroke="none" 
	d="
M223.819565,199.763107 
	C223.735886,199.749756 223.510895,199.567673 223.144485,199.216736 
	C223.227905,199.230331 223.452972,199.412491 223.819565,199.763107 
z"/>
<path fill="#1F91AE" opacity="1.000000" stroke="none" 
	d="
M205.506332,285.507019 
	C205.503662,285.492859 205.509003,285.521210 205.506332,285.507019 
z"/>
<path fill="#2490AB" opacity="1.000000" stroke="none" 
	d="
M243.003616,350.004822 
	C243.007294,350.009094 243.030136,349.961090 243.010956,349.977173 
	C242.991776,349.993286 242.999939,350.000549 243.003616,350.004822 
z"/>
</svg>